<?xml version="1.0" standalone="no"?>
<!DOCTYPE svg PUBLIC "-//W3C//DTD SVG 20010904//EN"
 "http://www.w3.org/TR/2001/REC-SVG-20010904/DTD/svg10.dtd">
<svg version="1.0" xmlns="http://www.w3.org/2000/svg"
 width="300.000000pt" height="298.000000pt" viewBox="0 0 300.000000 298.000000"
 preserveAspectRatio="xMidYMid meet">
<metadata>
Created by potrace 1.10, written by Peter Selinger 2001-2011
</metadata>
<g transform="translate(0.000000,298.000000) scale(0.100000,-0.100000)"
fill="#000000" stroke="none">
<path d="M457 2973 c-4 -3 -35 -18 -70 -33 -193 -81 -319 -235 -376 -460 -9
-33 -11 -313 -9 -1035 l3 -990 31 -80 c33 -85 70 -151 110 -194 13 -14 24 -29
24 -33 0 -10 136 -111 177 -132 18 -9 49 -16 70 -15 l38 0 -55 21 c-30 11 -67
29 -82 39 -14 11 -30 19 -34 19 -8 0 -29 19 -77 69 -17 19 -39 42 -47 51 -32
33 -79 119 -104 193 l-26 77 0 984 c0 541 3 999 6 1018 12 67 66 185 115 251
63 84 147 149 252 196 l82 36 1020 0 1020 0 47 -22 c26 -13 54 -23 61 -23 20
0 118 -68 170 -118 88 -85 147 -193 171 -314 14 -67 16 -205 16 -1026 0 -926
0 -950 -21 -1028 -50 -192 -204 -357 -389 -418 -8 -2 2 -5 23 -5 29 -1 56 10
115 48 123 80 206 180 258 315 l24 60 0 1051 c0 590 -4 1055 -9 1060 -5 6 -14
28 -21 50 -45 142 -188 290 -350 361 l-65 29 -1046 3 c-575 1 -1049 -1 -1052
-5z"/>
<path d="M700 2849 c-150 -4 -205 -9 -240 -22 -57 -22 -147 -83 -180 -122 -14
-16 -32 -37 -40 -45 -23 -24 -56 -88 -80 -155 l-22 -60 1 -955 c1 -525 4 -970
7 -990 9 -53 45 -148 60 -161 8 -6 14 -17 14 -23 0 -20 104 -123 161 -159 112
-71 72 -68 1154 -65 1076 3 992 -2 1107 71 63 41 128 99 128 115 0 6 6 15 13
19 14 8 43 65 74 143 17 42 18 110 21 1000 3 1050 4 1023 -58 1149 -57 114
-187 218 -315 251 -39 11 -223 14 -830 14 -429 1 -868 -2 -975 -5z m1793 -34
c175 -46 321 -199 347 -364 5 -31 11 -465 13 -966 5 -975 4 -1003 -44 -1102
-30 -60 -33 -64 -94 -128 -63 -66 -114 -98 -199 -124 -67 -21 -83 -21 -1006
-21 -923 0 -939 0 -1006 21 -147 44 -249 142 -316 299 l-23 55 -3 954 c-2 836
-1 961 13 1015 44 174 157 299 320 352 l70 23 935 1 c796 0 944 -2 993 -15z"/>
<path d="M1410 2554 c-71 -9 -88 -22 -105 -80 -8 -29 -18 -67 -21 -84 -4 -17
-17 -39 -30 -49 -28 -22 -22 -31 14 -22 22 6 28 15 34 49 4 22 12 50 17 61 6
11 11 30 11 43 0 54 15 59 156 60 187 1 203 -5 204 -75 0 -11 7 -43 16 -73 14
-51 18 -54 57 -64 56 -15 133 -47 179 -76 21 -13 43 -24 49 -24 6 0 42 20 79
45 37 24 73 47 81 50 13 5 158 -128 203 -185 40 -51 39 -47 7 -94 -17 -24 -31
-47 -31 -50 0 -3 -9 -15 -20 -26 -25 -25 -26 -64 -1 -98 10 -15 31 -64 47
-109 22 -62 34 -83 47 -83 20 0 157 -37 165 -44 27 -28 27 -304 0 -331 -2 -2
-26 -9 -53 -16 -143 -33 -130 -26 -144 -80 -17 -65 -7 -74 18 -16 20 47 38 57
122 71 52 9 85 39 94 83 10 53 7 219 -5 263 -11 41 -25 50 -125 83 l-70 22
-27 65 c-14 36 -34 82 -43 103 -19 43 -18 45 34 127 53 82 41 118 -82 241 -98
99 -120 107 -190 70 -29 -15 -64 -35 -78 -44 -24 -16 -28 -15 -89 14 -36 17
-92 41 -124 53 -52 19 -61 26 -72 58 -7 21 -15 50 -17 66 -7 44 -25 72 -55 83
-29 12 -195 20 -252 13z"/>
<path d="M781 2470 c-45 -7 -81 -37 -81 -67 0 -8 43 -58 95 -112 52 -54 95
-106 95 -115 0 -9 -5 -37 -11 -62 -12 -47 -33 -63 -106 -77 -31 -6 -39 0 -134
91 -55 53 -107 101 -116 105 -44 26 -77 -40 -77 -154 0 -80 3 -92 37 -161 35
-72 87 -131 161 -184 l30 -22 -35 -6 c-95 -18 -190 -50 -209 -71 -17 -18 -22
-40 -27 -107 -3 -47 -2 -116 2 -153 9 -88 27 -107 127 -129 l75 -17 41 -98
c23 -53 42 -104 42 -113 0 -8 -13 -33 -29 -55 -16 -22 -36 -54 -46 -72 -15
-31 -15 -34 5 -74 38 -79 194 -227 237 -227 13 0 53 18 89 40 36 22 72 40 79
40 7 0 48 -16 91 -36 44 -19 96 -43 118 -53 36 -16 40 -21 57 -91 24 -93 41
-109 130 -122 90 -14 240 1 265 26 9 10 25 50 36 89 13 49 26 77 41 87 12 8
35 27 50 42 16 16 30 28 32 28 1 0 13 -23 25 -52 67 -157 281 -262 441 -218
20 6 43 18 50 28 12 15 12 16 -2 4 -28 -22 -167 -27 -219 -7 -25 9 -59 21 -77
26 -33 10 -163 125 -163 144 0 6 -9 30 -20 53 -11 23 -20 62 -20 89 -1 82 -16
131 -54 180 -20 27 -200 212 -399 412 -411 413 -408 411 -543 411 -93 0 -170
22 -236 68 -57 39 -70 55 -114 137 -29 55 -38 85 -42 138 -6 78 14 177 35 177
7 0 13 -4 13 -9 0 -5 47 -57 104 -116 103 -105 104 -106 142 -99 22 3 59 16
84 27 40 20 45 27 56 72 7 28 15 59 18 70 5 16 -15 42 -99 125 -58 57 -105
107 -105 110 1 26 23 32 126 34 105 1 111 0 172 -32 75 -39 130 -93 168 -165
22 -42 28 -71 34 -152 5 -67 14 -115 28 -145 15 -34 116 -140 403 -426 211
-210 399 -389 418 -399 21 -10 73 -21 130 -25 133 -11 219 -46 283 -112 87
-92 122 -246 82 -370 -4 -15 -2 -19 7 -16 25 8 42 105 31 180 -21 139 -94 244
-210 298 -55 26 -63 32 -52 45 8 9 8 15 2 15 -6 0 -22 4 -35 9 -24 9 -25 12
-14 53 5 24 14 46 20 49 5 4 7 17 5 30 -3 19 -7 14 -18 -24 -8 -27 -23 -53
-33 -59 -17 -9 -17 -12 8 -44 l26 -34 -58 0 c-82 0 -92 10 -49 48 30 26 33 32
20 43 -12 10 -17 8 -29 -7 -8 -10 -15 -27 -15 -37 0 -16 -2 -16 -30 -2 -16 8
-36 15 -44 15 -26 0 -26 15 1 81 24 59 27 75 26 199 0 117 -4 144 -24 200 -62
169 -171 289 -329 367 -132 65 -299 82 -405 42 -69 -26 -64 -42 8 -23 84 22
209 18 297 -10 185 -60 304 -166 388 -344 l36 -77 1 -150 c0 -122 -3 -159 -18
-197 -12 -31 -16 -59 -12 -78 4 -16 3 -30 -1 -30 -18 0 -767 757 -787 795 -15
29 -22 66 -26 133 -6 100 3 125 14 40 11 -82 24 -93 25 -21 0 64 -27 154 -56
183 -12 12 -14 12 -14 -4 0 -9 5 -26 10 -37 20 -37 2 -18 -23 24 -88 149 -249
223 -426 197z m-33 -816 c38 -11 70 -14 108 -9 52 6 68 18 42 28 -7 3 2 6 20
6 18 1 51 -8 73 -20 24 -12 183 -164 402 -383 199 -200 367 -369 372 -377 26
-35 26 -40 -1 -21 -28 20 -32 20 -94 6 -84 -18 -230 -21 -300 -4 -57 13 -162
58 -168 72 -2 4 -10 8 -19 8 -8 0 -50 36 -93 79 -156 159 -202 317 -164 566 6
39 6 39 -12 22 -17 -16 -19 -34 -19 -175 l0 -157 43 -83 c83 -166 182 -258
350 -328 67 -28 108 -35 208 -36 102 -1 183 10 213 29 23 15 26 15 40 -7 9
-13 21 -37 27 -53 14 -42 39 -50 30 -11 -6 26 -5 27 7 12 9 -11 14 -44 15 -85
0 -38 -2 -59 -5 -49 -8 31 -22 -2 -16 -38 4 -29 2 -32 -37 -47 -39 -14 -44
-19 -61 -74 -10 -33 -19 -72 -19 -86 0 -39 -16 -46 -115 -53 -113 -8 -225 4
-235 24 -14 29 -34 95 -39 133 -6 37 -9 40 -81 70 -41 17 -102 45 -136 61
l-60 31 -80 -52 c-43 -28 -84 -52 -90 -52 -22 -2 -234 223 -234 248 0 11 24
50 78 127 l30 41 -34 69 c-18 38 -38 90 -45 116 l-13 47 -100 23 -101 23 0
164 0 164 60 19 c33 10 77 21 97 25 21 3 41 9 43 14 3 4 18 4 33 -1 15 -5 51
-16 80 -26z"/>
<path d="M495 1524 c-4 -31 -4 -82 0 -115 7 -55 9 -59 41 -69 19 -7 40 -9 47
-7 6 3 -3 8 -20 12 -50 11 -57 27 -56 121 1 71 5 88 20 99 17 14 17 14 -3 15
-19 0 -23 -8 -29 -56z"/>
<path d="M776 1558 c-8 -32 -7 -201 2 -215 4 -6 7 45 7 113 0 68 -1 124 -1
124 -1 0 -4 -10 -8 -22z"/>
<path d="M790 1304 c0 -31 26 -108 59 -174 31 -62 129 -195 138 -186 3 2 -14
28 -37 58 -23 29 -46 63 -51 76 -5 12 -16 25 -24 28 -8 4 -15 14 -15 23 0 9
-7 30 -16 46 -8 17 -22 54 -30 84 -15 58 -24 76 -24 45z"/>
<path d="M735 1158 c4 -18 12 -37 17 -43 7 -7 9 -2 4 15 -3 14 -6 33 -6 43 0
9 -5 17 -11 17 -7 0 -8 -12 -4 -32z"/>
<path d="M763 954 c-13 -14 -23 -31 -23 -38 0 -7 -9 -21 -20 -31 -26 -23 -25
-36 3 -63 12 -11 33 -34 47 -51 13 -17 28 -31 33 -31 5 0 -7 18 -27 41 -43 47
-64 87 -50 97 15 11 74 102 66 102 -4 0 -17 -12 -29 -26z"/>
<path d="M1000 931 c0 -10 103 -91 116 -91 6 0 15 -5 21 -11 37 -37 208 -89
338 -104 69 -7 237 18 269 41 27 18 16 18 -78 -6 -207 -52 -456 5 -611 143
-43 38 -55 44 -55 28z"/>
<path d="M820 722 c0 -5 9 -17 19 -26 16 -15 22 -15 40 -4 12 7 21 17 21 22 0
4 -6 3 -14 -3 -14 -12 -46 -5 -46 10 0 5 -4 9 -10 9 -5 0 -10 -4 -10 -8z"/>
<path d="M1646 623 c-2 -10 -8 -40 -12 -67 -11 -79 -34 -91 -159 -87 -30 1
-30 1 -6 -10 15 -6 53 -7 93 -3 l68 7 5 36 c4 20 11 58 17 84 10 46 6 78 -6
40z"/>
<path d="M1385 498 c9 -30 20 -41 36 -36 10 2 5 12 -14 31 -27 26 -28 26 -22
5z"/>
<path d="M1616 2430 c3 -19 10 -39 15 -44 14 -15 10 15 -6 49 l-15 30 6 -35z"/>
<path d="M841 2374 c7 -8 26 -24 42 -36 l30 -21 -18 27 -18 27 29 -6 c16 -4
37 -9 48 -12 11 -3 16 -1 12 5 -6 10 -50 22 -105 28 -29 3 -32 2 -20 -12z"/>
<path d="M1010 2333 c1 -5 13 -17 27 -28 41 -32 60 -52 65 -66 3 -8 9 -11 13
-7 5 5 -15 30 -43 58 -51 49 -62 57 -62 43z"/>
<path d="M533 2086 c4 -10 7 -31 7 -47 0 -16 5 -29 11 -29 6 0 9 6 6 14 -4 10
0 14 13 13 11 -1 22 -7 24 -13 3 -7 15 -18 28 -25 23 -11 23 -11 3 8 -11 10
-31 33 -45 49 -33 39 -56 54 -47 30z"/>
<path d="M571 1950 c0 -8 11 -28 24 -45 14 -16 25 -25 25 -18 0 6 -6 18 -13
25 -7 7 -18 22 -25 33 -8 14 -11 15 -11 5z"/>
<path d="M1190 1892 c13 -23 27 -42 32 -42 9 0 -30 67 -44 77 -6 3 0 -13 12
-35z"/>
<path d="M1246 1818 c10 -13 29 -35 43 -50 23 -26 23 -27 2 -21 -12 3 -24 9
-27 14 -3 5 -13 9 -22 9 -17 0 42 -42 63 -45 6 -1 15 -3 21 -3 15 -3 114 -102
114 -115 0 -6 -27 17 -61 51 -51 52 -79 73 -79 59 0 -4 461 -467 466 -467 2 0
4 9 4 21 0 17 2 18 13 7 7 -7 16 -22 20 -32 4 -10 10 -17 12 -14 3 2 37 -27
77 -67 40 -39 91 -82 113 -95 40 -25 116 -53 123 -45 5 4 -65 35 -80 35 -6 0
-24 12 -42 26 -31 26 -260 250 -284 279 -8 9 -22 13 -36 9 -14 -3 -27 1 -36
11 -18 22 -6 30 14 9 9 -9 20 -14 23 -11 3 3 -20 32 -50 64 -31 31 -59 54 -63
51 -3 -4 8 -22 25 -40 44 -47 38 -56 -9 -12 -31 29 -37 40 -28 51 9 11 -22 46
-156 178 -151 150 -210 202 -160 143z m259 -270 c43 -44 40 -54 -5 -16 -15 13
-54 68 -47 68 1 0 25 -23 52 -52z"/>
<path d="M733 1804 c9 -9 25 -13 82 -19 l40 -4 -35 9 c-73 19 -95 22 -87 14z"/>
<path d="M920 1781 c8 -4 33 -11 55 -15 25 -4 34 -3 25 3 -8 4 -33 11 -55 15
-25 4 -34 3 -25 -3z"/>
<path d="M2166 1763 c4 -15 15 -46 25 -68 9 -22 20 -66 24 -98 4 -31 11 -60
16 -63 5 -3 9 -2 9 3 0 25 -33 162 -46 187 -8 16 -14 35 -14 42 0 7 -5 16 -10
19 -7 4 -8 -3 -4 -22z"/>
<path d="M1054 1738 c11 -7 37 -28 58 -47 21 -18 38 -29 38 -23 0 12 -53 54
-90 71 -21 10 -22 10 -6 -1z"/>
<path d="M1180 1682 c0 -7 30 -42 66 -78 37 -36 64 -67 61 -71 -4 -3 -36 25
-72 62 -36 37 -68 65 -71 62 -8 -7 98 -125 114 -126 6 -1 12 -5 12 -10 0 -4
23 -31 51 -59 40 -40 57 -50 74 -46 15 4 24 0 28 -10 4 -9 2 -16 -2 -16 -5 0
-12 6 -14 13 -3 7 -6 4 -6 -6 -1 -19 35 -56 54 -56 6 0 0 8 -13 19 -12 10 -18
21 -13 25 17 10 166 -145 166 -171 0 -16 38 -62 126 -151 70 -70 127 -131 128
-135 0 -5 1 -12 1 -17 0 -5 7 -11 15 -15 36 -14 -13 53 -142 191 -13 13 -23
29 -23 34 0 6 24 -14 53 -45 33 -35 63 -57 82 -61 24 -4 26 -3 10 4 -11 5
-170 159 -352 343 -183 184 -333 328 -333 320z m205 -218 c8 -13 11 -24 5 -24
-5 0 -10 5 -10 11 0 5 -4 7 -10 4 -5 -3 -10 1 -10 9 0 9 -4 16 -10 16 -5 0
-10 4 -10 10 0 16 28 0 45 -26z m285 -283 c22 -21 40 -45 40 -52 -1 -10 -4 -9
-14 3 -7 10 -16 15 -19 11 -4 -3 -7 -1 -7 5 0 6 -11 22 -25 36 -24 24 -31 36
-20 36 3 0 23 -17 45 -39z"/>
<path d="M2488 1568 c16 -20 25 -115 15 -163 -7 -32 -16 -44 -43 -57 -40 -20
-32 -23 23 -7 l38 10 -3 112 c-3 102 -5 112 -23 116 -16 3 -17 1 -7 -11z"/>
<path d="M2232 1420 c-1 -23 -5 -55 -10 -73 -12 -39 -24 -117 -18 -117 9 0 34
105 41 168 4 38 3 62 -3 62 -5 0 -10 -18 -10 -40z"/>
<path d="M1520 1291 c0 -12 59 -71 71 -71 4 0 5 9 2 20 -3 12 -8 18 -11 15 -3
-3 -18 7 -34 22 -15 15 -28 21 -28 14z"/>
<path d="M1780 1231 c0 -5 9 -13 20 -16 11 -3 20 -9 20 -13 0 -12 68 -82 80
-82 6 0 1 14 -12 30 -12 17 -28 30 -35 30 -8 0 -17 8 -20 18 -11 29 -53 55
-53 33z"/>
<path d="M2140 1019 c0 -7 191 -18 199 -12 2 2 2 6 -2 9 -8 9 -197 11 -197 3z"/>
<path d="M2371 972 c39 -26 86 -81 108 -127 11 -22 20 -34 21 -27 0 20 -48
106 -72 127 -24 21 -65 45 -77 45 -3 0 6 -8 20 -18z"/>
<path d="M2285 870 c-23 -6 -16 -7 29 -6 50 1 61 -2 73 -21 9 -13 22 -23 30
-23 21 0 -1 26 -38 46 -30 15 -47 16 -94 4z"/>
<path d="M2190 848 c-14 -6 -20 -12 -14 -14 6 -3 26 2 45 10 23 10 27 15 14
15 -11 0 -31 -5 -45 -11z"/>
<path d="M2126 808 c-13 -21 -46 -133 -46 -154 1 -20 22 30 36 83 8 32 22 65
31 75 9 11 11 18 5 18 -6 0 -18 -10 -26 -22z"/>
<path d="M2295 796 c-16 -7 -46 -16 -66 -20 -38 -7 -51 -29 -64 -113 -6 -41
-6 -42 67 -114 102 -102 138 -133 138 -119 0 7 -41 55 -91 106 -98 99 -103
111 -77 175 12 27 24 38 55 47 22 7 47 12 56 12 8 0 48 -32 87 -72 40 -40 86
-83 103 -95 65 -48 46 -19 -54 82 -57 58 -105 110 -107 115 -5 13 -10 12 -47
-4z"/>
<path d="M2430 805 c0 -2 20 -26 45 -52 42 -45 45 -46 45 -23 0 36 -11 70 -22
70 -5 0 -7 -4 -3 -9 12 -20 -15 -21 -35 -1 -19 19 -30 25 -30 15z"/>
<path d="M2080 591 c0 -6 8 -16 18 -23 9 -7 32 -30 50 -52 26 -29 31 -41 21
-47 -15 -9 -5 -14 44 -22 32 -5 46 9 18 18 -11 3 -22 12 -25 20 -3 8 -12 15
-21 15 -8 0 -15 4 -15 9 0 9 -76 91 -85 91 -3 0 -5 -4 -5 -9z"/>
</g>
</svg>
